<svg id="visual" viewBox="0 0 960 540" width="960" height="540" xmlns="http://www.w3.org/2000/svg" xmlns:xlink="http://www.w3.org/1999/xlink" version="1.1"><path d="M0 44L53.3 48.5C106.7 53 213.3 62 320 64.7C426.7 67.3 533.3 63.7 640 61.8C746.7 60 853.3 60 906.7 60L960 60L960 0L906.7 0C853.3 0 746.7 0 640 0C533.3 0 426.7 0 320 0C213.3 0 106.7 0 53.3 0L0 0Z" fill="#eeeeee"></path><path d="M0 168L53.3 179.8C106.7 191.7 213.3 215.3 320 219C426.7 222.7 533.3 206.3 640 196.3C746.7 186.3 853.3 182.7 906.7 180.8L960 179L960 58L906.7 58C853.3 58 746.7 58 640 59.8C533.3 61.7 426.7 65.3 320 62.7C213.3 60 106.7 51 53.3 46.5L0 42Z" fill="#f6f6f6"></path><path d="M0 266L53.3 273.2C106.7 280.3 213.3 294.7 320 298.2C426.7 301.7 533.3 294.3 640 289.8C746.7 285.3 853.3 283.7 906.7 282.8L960 282L960 177L906.7 178.8C853.3 180.7 746.7 184.3 640 194.3C533.3 204.3 426.7 220.7 320 217C213.3 213.3 106.7 189.7 53.3 177.8L0 166Z" fill="#ffffff"></path><path d="M0 471L53.3 473.7C106.7 476.3 213.3 481.7 320 479C426.7 476.3 533.3 465.7 640 460.3C746.7 455 853.3 455 906.7 455L960 455L960 280L906.7 280.8C853.3 281.7 746.7 283.3 640 287.8C533.3 292.3 426.7 299.7 320 296.2C213.3 292.7 106.7 278.3 53.3 271.2L0 264Z" fill="#ffffff"></path><path d="M0 541L53.3 541C106.7 541 213.3 541 320 541C426.7 541 533.3 541 640 541C746.7 541 853.3 541 906.7 541L960 541L960 453L906.7 453C853.3 453 746.7 453 640 458.3C533.3 463.7 426.7 474.3 320 477C213.3 479.7 106.7 474.3 53.3 471.7L0 469Z" fill="#ffffff"></path></svg>